<?xml version="1.0" encoding="utf-8"?>
<!-- Generator: Adobe Illustrator 24.0.3, SVG Export Plug-In . SVG Version: 6.00 Build 0)  -->
<svg version="1.1" id="Layer_1" xmlns="http://www.w3.org/2000/svg" xmlns:xlink="http://www.w3.org/1999/xlink" x="0px" y="0px"
	 viewBox="0 0 156 25" enable-background="new 0 0 156 25" xml:space="preserve">
<g>
	<path d="M95.527,4.689c2.366,0,4.393,0.811,6.052,2.588l1.997-1.965c-1.966-2.245-4.854-3.399-8.171-3.399
		c-6.544,0-11.398,4.708-11.398,11.163c0,6.455,4.854,11.163,11.367,11.163c3.348,0,6.236-1.185,8.202-3.43l-1.997-1.965
		c-1.659,1.777-3.686,2.619-6.052,2.619c-4.854,0-8.448-3.555-8.448-8.388C87.079,8.243,90.673,4.689,95.527,4.689z"/>
	<path d="M118.538,2.163l-9.738,21.827h3.164l2.365-5.457h11.428l2.366,5.457h3.225l-9.769-21.827H118.538z M115.404,16.039
		l4.639-10.695l4.639,10.695H115.404z"/>
	<polygon points="22.948,1.957 14.101,17.298 5.13,1.957 2.612,1.957 2.612,23.783 5.56,23.783 5.56,7.975 13.333,21.133 
		14.746,21.133 22.518,7.881 22.549,23.783 25.498,23.783 25.467,1.957 	"/>
	<polygon points="36.558,23.783 52.164,23.783 52.164,21.07 39.63,21.07 39.63,11.654 52.164,11.654 52.164,9.003 39.63,9.003 
		39.63,4.669 52.164,4.669 52.164,1.957 36.558,1.957 	"/>
	<polygon points="151.195,17.737 151.195,21.277 142.224,21.277 142.224,2.163 139.152,2.163 139.152,23.99 153.867,23.99 
		153.867,21.334 153.867,21.277 153.867,17.737 	"/>
	<polygon points="74.748,21.07 63.962,21.07 77.417,4.077 77.417,1.957 60.06,1.957 60.06,4.669 60.081,4.669 60.081,8.237 
		62.754,8.237 62.754,4.669 73.363,4.669 59.999,21.506 59.999,23.627 77.42,23.783 77.42,21.074 77.42,21.07 77.42,17.477 
		74.748,17.477 	"/>
</g>
</svg>
