<?xml version="1.0" encoding="utf-8"?>
<!-- Generator: Adobe Illustrator 24.0.3, SVG Export Plug-In . SVG Version: 6.00 Build 0)  -->
<svg version="1.1" id="Layer_1" xmlns="http://www.w3.org/2000/svg" xmlns:xlink="http://www.w3.org/1999/xlink" x="0px" y="0px"
	 viewBox="0 0 595.276 19.957" enable-background="new 0 0 595.276 19.957" xml:space="preserve">
<polygon fill="none" points="29.388,3.893 15.28,3.893 15.28,6.379 25.252,6.379 "/>
<polygon fill="none" points="477.985,15.349 469.775,15.349 466.694,17.3 477.985,17.3 "/>
<polygon fill="none" points="482.519,10.151 478.569,12.653 482.519,12.653 "/>
<polygon fill="none" points="15.28,9.815 15.28,12.373 19.536,9.815 "/>
<polygon points="15.28,16.784 15.28,16.735 15.198,16.784 "/>
<path d="M28.874,0.034h-1.435H11.991h-1.348H9.294v11.304v0l-1.95,1.172V0.034H4.647v14.098v0l-1.95,1.172V0.034H0v2.551v14.34v0
	v0.901v2.522l11.927-7.169l0.064-0.038L29.428,2.659V1.465V1.354v-1.32H28.874z M11.991,9.717V7.71h3.34L11.991,9.717z
	 M19.817,5.013h-7.826V3.063h11.072L19.817,5.013z"/>
<g>
	<polygon points="374.319,0.117 372.884,0.117 368.507,2.748 365.262,4.699 360.776,7.395 357.436,9.403 354.739,11.023 
		352.788,12.196 350.092,13.817 348.142,14.989 345.445,16.61 339.848,20.032 345.445,20.032 357.372,12.864 357.436,12.825 
		378.578,0.117 374.873,0.117 374.873,0.117 374.873,0.117 	"/>
	<polygon points="361.484,0.117 360.048,0.117 355.672,2.748 352.426,4.699 347.94,7.395 344.6,9.403 341.903,11.023 
		339.953,12.196 337.256,13.817 335.306,14.989 332.609,16.61 327.013,20.032 332.609,20.032 344.536,12.864 344.6,12.825 
		365.743,0.117 362.038,0.117 362.038,0.117 362.038,0.117 	"/>
	<polygon points="348.648,0.117 347.213,0.117 342.837,2.748 339.591,4.699 335.105,7.395 331.765,9.403 329.068,11.023 
		327.118,12.196 324.421,13.817 322.471,14.989 319.774,16.61 314.178,20.032 319.774,20.032 331.701,12.864 331.765,12.825 
		352.908,0.117 349.202,0.117 349.202,0.117 349.202,0.117 	"/>
	<polygon points="335.813,0.117 334.378,0.117 330.001,2.748 326.756,4.699 322.27,7.395 318.93,9.403 316.233,11.023 
		314.282,12.196 311.586,13.817 309.636,14.989 306.939,16.61 301.342,20.032 306.939,20.032 318.866,12.864 318.93,12.825 
		340.072,0.117 336.367,0.117 336.367,0.117 336.367,0.117 	"/>
	<polygon points="322.978,0.117 321.543,0.117 317.166,2.748 313.92,4.699 309.435,7.395 306.094,9.403 303.398,11.023 
		301.447,12.196 298.75,13.817 296.8,14.989 294.104,16.61 288.507,20.032 294.104,20.032 306.03,12.864 306.094,12.825 
		327.237,0.117 323.532,0.117 323.532,0.117 323.532,0.117 	"/>
	<polygon points="310.143,0.117 308.707,0.117 304.331,2.748 301.085,4.699 296.599,7.395 293.259,9.403 290.562,11.023 
		288.612,12.196 285.915,13.817 283.965,14.989 281.268,16.61 275.672,20.032 281.268,20.032 293.195,12.864 293.259,12.825 
		314.402,0.117 310.696,0.117 310.696,0.117 310.696,0.117 	"/>
	<polygon points="297.307,0.117 295.872,0.117 291.495,2.748 288.25,4.699 283.764,7.395 280.424,9.403 277.727,11.023 
		275.777,12.196 273.08,13.817 271.13,14.989 268.433,16.61 262.837,20.032 268.433,20.032 280.36,12.864 280.424,12.825 
		301.566,0.117 297.861,0.117 297.861,0.117 297.861,0.117 	"/>
	<polygon points="284.472,0.117 283.037,0.117 278.66,2.748 275.414,4.699 270.929,7.395 267.588,9.403 264.892,11.023 
		262.941,12.196 260.244,13.817 258.294,14.989 255.598,16.61 250.001,20.032 255.598,20.032 267.524,12.864 267.588,12.825 
		288.731,0.117 285.026,0.117 285.026,0.117 285.026,0.117 	"/>
	<polygon points="271.637,0.117 270.201,0.117 265.825,2.748 262.579,4.699 258.093,7.395 254.753,9.403 252.056,11.023 
		250.106,12.196 247.409,13.817 245.459,14.989 242.762,16.61 237.166,20.032 242.762,20.032 254.689,12.864 254.753,12.825 
		275.896,0.117 272.19,0.117 272.19,0.117 272.19,0.117 	"/>
	<polygon points="258.801,0.117 257.366,0.117 252.989,2.748 249.744,4.699 245.258,7.395 241.918,9.403 239.221,11.023 
		237.271,12.196 234.574,13.817 232.624,14.989 229.927,16.61 224.331,20.032 229.927,20.032 241.854,12.864 241.918,12.825 
		263.061,0.117 259.355,0.117 259.355,0.117 259.355,0.117 	"/>
	<polygon points="245.966,0.117 244.531,0.117 240.154,2.748 236.908,4.699 232.423,7.395 229.083,9.403 226.386,11.023 
		224.435,12.196 221.739,13.817 219.789,14.989 217.092,16.61 211.495,20.032 217.092,20.032 229.018,12.864 229.083,12.825 
		250.225,0.117 246.52,0.117 246.52,0.117 246.52,0.117 	"/>
	<polygon points="233.131,0.117 231.695,0.117 227.319,2.748 224.073,4.699 219.587,7.395 216.247,9.403 213.55,11.023 
		211.6,12.196 208.903,13.817 206.953,14.989 204.256,16.61 198.66,20.032 204.256,20.032 216.183,12.864 216.247,12.825 
		237.39,0.117 233.685,0.117 233.685,0.117 233.685,0.117 	"/>
	<polygon points="220.295,0.117 218.86,0.117 214.483,2.748 211.238,4.699 206.752,7.395 203.412,9.403 200.715,11.023 
		198.765,12.196 196.068,13.817 194.118,14.989 191.421,16.61 185.825,20.032 191.421,20.032 203.348,12.864 203.412,12.825 
		224.555,0.117 220.849,0.117 220.849,0.117 220.849,0.117 	"/>
	<polygon points="207.46,0.117 206.025,0.117 201.648,2.748 198.403,4.699 193.917,7.395 190.577,9.403 187.88,11.023 
		185.929,12.196 183.233,13.817 181.283,14.989 178.586,16.61 172.989,20.032 178.586,20.032 190.513,12.864 190.577,12.825 
		211.719,0.117 208.014,0.117 208.014,0.117 208.014,0.117 	"/>
	<polygon points="194.625,0.117 193.189,0.117 188.813,2.748 185.567,4.699 181.082,7.395 177.741,9.403 175.045,11.023 
		173.094,12.196 170.397,13.817 168.447,14.989 165.751,16.61 160.154,20.032 165.751,20.032 177.677,12.864 177.741,12.825 
		198.884,0.117 195.179,0.117 195.179,0.117 195.179,0.117 	"/>
	<polygon points="181.789,0.117 180.354,0.117 175.978,2.748 172.732,4.699 168.246,7.395 164.906,9.403 162.209,11.023 
		160.259,12.196 157.562,13.817 155.612,14.989 152.915,16.61 147.319,20.032 152.915,20.032 164.842,12.864 164.906,12.825 
		186.049,0.117 182.343,0.117 182.343,0.117 182.343,0.117 	"/>
	<polygon points="168.954,0.117 167.519,0.117 163.142,2.748 159.897,4.699 155.411,7.395 152.071,9.403 149.374,11.023 
		147.423,12.196 144.727,13.817 142.777,14.989 140.08,16.61 134.484,20.032 140.08,20.032 152.007,12.864 152.071,12.825 
		173.213,0.117 169.508,0.117 169.508,0.117 169.508,0.117 	"/>
	<polygon points="156.119,0.117 154.684,0.117 150.307,2.748 147.061,4.699 142.576,7.395 139.235,9.403 136.539,11.023 
		134.588,12.196 131.891,13.817 129.941,14.989 127.245,16.61 121.648,20.032 127.245,20.032 139.171,12.864 139.235,12.825 
		160.378,0.117 156.673,0.117 156.673,0.117 156.673,0.117 	"/>
	<polygon points="143.284,0.117 141.848,0.117 137.472,2.748 134.226,4.699 129.74,7.395 126.4,9.403 123.703,11.023 
		121.753,12.196 119.056,13.817 117.106,14.989 114.409,16.61 108.813,20.032 114.409,20.032 126.336,12.864 126.4,12.825 
		147.543,0.117 143.837,0.117 143.837,0.117 143.837,0.117 	"/>
	<polygon points="130.448,0.117 129.013,0.117 124.636,2.748 121.391,4.699 116.905,7.395 113.565,9.403 110.868,11.023 
		108.918,12.196 106.221,13.817 104.271,14.989 101.574,16.61 95.978,20.032 101.574,20.032 113.501,12.864 113.565,12.825 
		134.708,0.117 131.002,0.117 131.002,0.117 131.002,0.117 	"/>
	<polygon points="117.613,0.117 116.178,0.117 111.801,2.748 108.555,4.699 104.07,7.395 100.729,9.403 98.033,11.023 
		96.082,12.196 93.385,13.817 91.436,14.989 88.739,16.61 83.142,20.032 88.739,20.032 100.665,12.864 100.729,12.825 
		121.872,0.117 118.167,0.117 118.167,0.117 118.167,0.117 	"/>
	<polygon points="104.778,0.117 103.342,0.117 98.966,2.748 95.72,4.699 91.234,7.395 87.894,9.403 85.197,11.023 83.247,12.196 
		80.55,13.817 78.6,14.989 75.903,16.61 70.307,20.032 75.903,20.032 87.83,12.864 87.894,12.825 109.037,0.117 105.332,0.117 
		105.332,0.117 105.332,0.117 	"/>
	<polygon points="91.942,0.117 90.507,0.117 86.13,2.748 82.885,4.699 78.399,7.395 75.059,9.403 72.362,11.023 70.412,12.196 
		67.715,13.817 65.765,14.989 63.068,16.61 57.472,20.032 63.068,20.032 74.995,12.864 75.059,12.825 96.202,0.117 92.496,0.117 
		92.496,0.117 92.496,0.117 	"/>
	<polygon points="79.107,0.117 77.672,0.117 73.295,2.748 70.05,4.699 65.564,7.395 62.224,9.403 59.527,11.023 57.576,12.196 
		54.88,13.817 52.93,14.989 50.233,16.61 44.636,20.032 50.233,20.032 62.16,12.864 62.224,12.825 83.366,0.117 79.661,0.117 
		79.661,0.117 79.661,0.117 	"/>
	<polygon points="66.272,0.117 64.836,0.117 60.46,2.748 57.214,4.699 52.728,7.395 49.388,9.403 46.691,11.023 44.741,12.196 
		42.044,13.817 40.094,14.989 37.397,16.61 31.801,20.032 37.397,20.032 49.324,12.864 49.388,12.825 70.531,0.117 66.826,0.117 
		66.826,0.117 66.826,0.117 	"/>
	<polygon points="53.436,0.117 52.001,0.117 47.625,2.748 44.379,4.699 39.893,7.395 36.553,9.403 33.856,11.023 31.906,12.196 
		29.209,13.817 27.259,14.989 24.562,16.61 18.966,20.032 24.562,20.032 36.489,12.864 36.553,12.825 57.696,0.117 53.99,0.117 
		53.99,0.117 53.99,0.117 	"/>
	<polygon points="40.601,0.117 39.166,0.117 34.789,2.748 31.544,4.699 27.058,7.395 23.718,9.403 21.021,11.023 19.07,12.196 
		16.374,13.817 14.424,14.989 11.727,16.61 6.13,20.032 11.727,20.032 23.654,12.864 23.718,12.825 44.86,0.117 41.155,0.117 
		41.155,0.117 41.155,0.117 	"/>
</g>
<g>
	<polygon points="477.035,0.117 475.599,0.117 471.223,2.748 467.977,4.699 463.491,7.395 460.151,9.403 457.454,11.023 
		455.504,12.196 452.807,13.817 450.857,14.989 448.16,16.61 442.564,20.032 448.16,20.032 460.087,12.864 460.151,12.825 
		481.294,0.117 477.589,0.117 477.589,0.117 477.589,0.117 	"/>
	<polygon points="464.199,0.117 462.764,0.117 458.387,2.748 455.142,4.699 450.656,7.395 447.316,9.403 444.619,11.023 
		442.669,12.196 439.972,13.817 438.022,14.989 435.325,16.61 429.729,20.032 435.325,20.032 447.252,12.864 447.316,12.825 
		468.459,0.117 464.753,0.117 464.753,0.117 464.753,0.117 	"/>
	<polygon points="451.364,0.117 449.929,0.117 445.552,2.748 442.307,4.699 437.821,7.395 434.481,9.403 431.784,11.023 
		429.833,12.196 427.137,13.817 425.187,14.989 422.49,16.61 416.893,20.032 422.49,20.032 434.417,12.864 434.481,12.825 
		455.623,0.117 451.918,0.117 451.918,0.117 451.918,0.117 	"/>
	<polygon points="438.529,0.117 437.093,0.117 432.717,2.748 429.471,4.699 424.986,7.395 421.645,9.403 418.949,11.023 
		416.998,12.196 414.301,13.817 412.351,14.989 409.655,16.61 404.058,20.032 409.655,20.032 421.581,12.864 421.645,12.825 
		442.788,0.117 439.083,0.117 439.083,0.117 439.083,0.117 	"/>
	<polygon points="425.693,0.117 424.258,0.117 419.882,2.748 416.636,4.699 412.15,7.395 408.81,9.403 406.113,11.023 
		404.163,12.196 401.466,13.817 399.516,14.989 396.819,16.61 391.223,20.032 396.819,20.032 408.746,12.864 408.81,12.825 
		429.953,0.117 426.247,0.117 426.247,0.117 426.247,0.117 	"/>
	<polygon points="412.858,0.117 411.423,0.117 407.046,2.748 403.801,4.699 399.315,7.395 395.975,9.403 393.278,11.023 
		391.327,12.196 388.631,13.817 386.681,14.989 383.984,16.61 378.388,20.032 383.984,20.032 395.911,12.864 395.975,12.825 
		417.117,0.117 413.412,0.117 413.412,0.117 413.412,0.117 	"/>
	<polygon points="400.023,0.117 398.588,0.117 394.211,2.748 390.965,4.699 386.48,7.395 383.139,9.403 380.443,11.023 
		378.492,12.196 375.795,13.817 373.845,14.989 371.149,16.61 365.552,20.032 371.149,20.032 383.075,12.864 383.139,12.825 
		404.282,0.117 400.577,0.117 400.577,0.117 400.577,0.117 	"/>
	<polygon points="387.188,0.117 385.752,0.117 381.376,2.748 378.13,4.699 373.644,7.395 370.304,9.403 367.607,11.023 
		365.657,12.196 362.96,13.817 361.01,14.989 358.313,16.61 352.717,20.032 358.313,20.032 370.24,12.864 370.304,12.825 
		391.447,0.117 387.741,0.117 387.741,0.117 387.741,0.117 	"/>
</g>
<polygon fill="none" points="582,15.349 573.79,15.349 570.709,17.3 582,17.3 "/>
<g>
	<polygon points="581.05,0.117 579.614,0.117 575.238,2.748 571.992,4.699 567.506,7.395 564.166,9.403 561.469,11.023 
		559.519,12.196 556.822,13.817 554.872,14.989 552.175,16.61 546.579,20.032 552.175,20.032 564.102,12.864 564.166,12.825 
		585.309,0.117 581.604,0.117 581.604,0.117 581.604,0.117 	"/>
	<polygon points="568.214,0.117 566.779,0.117 562.402,2.748 559.157,4.699 554.671,7.395 551.331,9.403 548.634,11.023 
		546.684,12.196 543.987,13.817 542.037,14.989 539.34,16.61 533.744,20.032 539.34,20.032 551.267,12.864 551.331,12.825 
		572.474,0.117 568.768,0.117 568.768,0.117 568.768,0.117 	"/>
	<polygon points="555.379,0.117 553.944,0.117 549.567,2.748 546.322,4.699 541.836,7.395 538.496,9.403 535.799,11.023 
		533.848,12.196 531.152,13.817 529.202,14.989 526.505,16.61 520.908,20.032 526.505,20.032 538.432,12.864 538.496,12.825 
		559.638,0.117 555.933,0.117 555.933,0.117 555.933,0.117 	"/>
	<polygon points="542.544,0.117 541.109,0.117 536.732,2.748 533.486,4.699 529.001,7.395 525.66,9.403 522.964,11.023 
		521.013,12.196 518.316,13.817 516.366,14.989 513.67,16.61 508.073,20.032 513.67,20.032 525.596,12.864 525.66,12.825 
		546.803,0.117 543.098,0.117 543.098,0.117 543.098,0.117 	"/>
	<polygon points="529.708,0.117 528.273,0.117 523.897,2.748 520.651,4.699 516.165,7.395 512.825,9.403 510.128,11.023 
		508.178,12.196 505.481,13.817 503.531,14.989 500.834,16.61 495.238,20.032 500.834,20.032 512.761,12.864 512.825,12.825 
		533.968,0.117 530.262,0.117 530.262,0.117 530.262,0.117 	"/>
	<polygon points="516.873,0.117 515.438,0.117 511.061,2.748 507.816,4.699 503.33,7.395 499.99,9.403 497.293,11.023 
		495.342,12.196 492.646,13.817 490.696,14.989 487.999,16.61 482.403,20.032 487.999,20.032 499.926,12.864 499.99,12.825 
		521.132,0.117 517.427,0.117 517.427,0.117 517.427,0.117 	"/>
	<polygon points="504.038,0.117 502.603,0.117 498.226,2.748 494.98,4.699 490.495,7.395 487.154,9.403 484.458,11.023 
		482.507,12.196 479.81,13.817 477.86,14.989 475.164,16.61 469.567,20.032 475.164,20.032 487.09,12.864 487.154,12.825 
		508.297,0.117 504.592,0.117 504.592,0.117 504.592,0.117 	"/>
	<polygon points="491.203,0.117 489.767,0.117 485.391,2.748 482.145,4.699 477.659,7.395 474.319,9.403 471.622,11.023 
		469.672,12.196 466.975,13.817 465.025,14.989 462.328,16.61 456.732,20.032 462.328,20.032 474.255,12.864 474.319,12.825 
		495.462,0.117 491.756,0.117 491.756,0.117 491.756,0.117 	"/>
</g>
<path d="M592.549,0.034l-26.679,16.891l-5.002,3.108l5.023-0.037h0.22h6.42h9.522v0.007h2.697V8.444l2.578-1.632v13.169h2.697V5.105
	v0l2.577-1.632v16.486h2.697V1.766v0V0.883v-0.85H592.549z M582.052,17.3h-9.682h-1.608l1.541-0.975v0l1.541-0.975h8.209V17.3z
	 M582.052,12.652h-3.951l3.951-2.501V12.652z"/>
</svg>
